<svg width="80" height="80" viewBox="0 0 80 80" fill="none" xmlns="http://www.w3.org/2000/svg">
<path d="M78 40C78 60.9868 60.9868 78 40 78C19.0132 78 2 60.9868 2 40C2 19.0132 19.0132 2 40 2C60.9868 2 78 19.0132 78 40Z" stroke="#0F8764" stroke-width="4"/>
<path d="M34.0285 68.945C28.7582 69.2997 24.391 64.9324 24.7456 59.6621C25.0542 55.0755 28.9556 51.5567 33.5524 51.5567H37.9149V45.6489H42.1337V51.5567H53.9003V55.7755H42.1337V60.138C42.1339 64.735 38.6151 68.6364 34.0285 68.945ZM33.4296 55.7756C30.8607 55.7756 28.7893 57.9463 28.9532 60.5497C29.0937 62.7811 30.9096 64.5971 33.141 64.7375C35.7445 64.9014 37.9151 62.83 37.9151 60.2611V55.7756H33.4296Z" fill="#B43778"/>
<path d="M42.1339 45.6489H40.0245V65.932C41.3375 64.4074 42.1339 62.4261 42.1339 60.261V55.7755H53.9005V51.5567H42.1339V45.6489Z" fill="#B43778"/>
<path d="M56.8115 59.4158C60.0343 59.4158 62.6469 56.8032 62.6469 53.5803C62.6469 50.3575 60.0343 47.7449 56.8115 47.7449C53.5886 47.7449 50.976 50.3575 50.976 53.5803C50.976 56.8032 53.5886 59.4158 56.8115 59.4158Z" fill="#B43778"/>
<path d="M56.8115 57.5236C58.9893 57.5236 60.7548 55.7582 60.7548 53.5804C60.7548 51.4026 58.9893 49.6371 56.8115 49.6371C54.6337 49.6371 52.8682 51.4026 52.8682 53.5804C52.8682 55.7582 54.6337 57.5236 56.8115 57.5236Z" fill="#B43778"/>
<path d="M40.0246 47.7585C33.3713 47.7585 27.9583 42.3455 27.9583 35.6923H32.1771C32.1771 40.0194 35.6974 43.5398 40.0246 43.5398C44.3518 43.5398 47.8721 40.0194 47.8721 35.6923H52.0908C52.0908 42.3455 46.6779 47.7585 40.0246 47.7585Z" fill="#B43778"/>
<path d="M40.0245 43.5398V47.7585C46.6778 47.7585 52.0908 42.3455 52.0908 35.6923H47.872C47.872 40.0193 44.3517 43.5396 40.0245 43.5398Z" fill="#B43778"/>
<path d="M51.0417 35.6927H48.6979V16.444L45.2209 14.8502L46.1974 12.7196L51.0417 14.9399V35.6927Z" fill="#B43778"/>
<path d="M31.1918 35.6927H28.8481V14.9399L33.6923 12.7196L34.6689 14.8502L31.1918 16.444V35.6927Z" fill="#B43778"/>
<path d="M45.4847 16.7711C47.0688 16.7711 48.353 15.4869 48.353 13.9028C48.353 12.3187 47.0688 11.0345 45.4847 11.0345C43.9006 11.0345 42.6164 12.3187 42.6164 13.9028C42.6164 15.4869 43.9006 16.7711 45.4847 16.7711Z" fill="#B43778"/>
<path d="M34.5965 16.7711C36.1806 16.7711 37.4648 15.4869 37.4648 13.9028C37.4648 12.3187 36.1806 11.0345 34.5965 11.0345C33.0124 11.0345 31.7282 12.3187 31.7282 13.9028C31.7282 15.4869 33.0124 16.7711 34.5965 16.7711Z" fill="#B43778"/>
</svg>
