<svg width="80" height="80" viewBox="0 0 80 80" fill="none" xmlns="http://www.w3.org/2000/svg">
<path d="M78 40C78 60.9868 60.9868 78 40 78C19.0132 78 2 60.9868 2 40C2 19.0132 19.0132 2 40 2C60.9868 2 78 19.0132 78 40Z" stroke="#0F8764" stroke-width="4"/>
<path d="M17.8572 18.7123H61.528V61.0257H17.8572V18.7123Z" fill="#B43778"/>
<path d="M52.9925 58.3763C53.8965 58.3763 54.6293 57.6434 54.6293 56.7394C54.6293 55.8354 53.8965 55.1025 52.9925 55.1025C52.0884 55.1025 51.3556 55.8354 51.3556 56.7394C51.3556 57.6434 52.0884 58.3763 52.9925 58.3763Z" fill="white"/>
<path d="M57.2908 58.3763C58.1948 58.3763 58.9277 57.6434 58.9277 56.7394C58.9277 55.8354 58.1948 55.1025 57.2908 55.1025C56.3868 55.1025 55.6539 55.8354 55.6539 56.7394C55.6539 57.6434 56.3868 58.3763 57.2908 58.3763Z" fill="white"/>
<path d="M21.0387 55.5627H30.8099V58.3766H21.0387V55.5627Z" fill="white"/>
<rect x="20" y="20.7142" width="39.2857" height="31.4286" fill="#B43778"/>
<mask id="mask0" mask-type="alpha" maskUnits="userSpaceOnUse" x="18" y="16" width="43" height="37">
<path d="M39.6428 16.4286L60.3656 52.3214H18.9201L39.6428 16.4286Z" fill="#C4C4C4"/>
</mask>
<g mask="url(#mask0)">
<rect x="20" y="20.7144" width="39.2857" height="31.4286" fill="white"/>
</g>
</svg>
