<svg width="80" height="80" viewBox="0 0 80 80" fill="none" xmlns="http://www.w3.org/2000/svg">
<path d="M78 40C78 60.9868 60.9868 78 40 78C19.0132 78 2 60.9868 2 40C2 19.0132 19.0132 2 40 2C60.9868 2 78 19.0132 78 40Z" stroke="#0F8764" stroke-width="4"/>
<path d="M23.7306 48.4149C20.6339 48.4149 17.7031 46.5614 16.4784 43.5117C13.3116 35.6259 16.1994 26.5539 23.3445 21.9401C26.9697 19.5996 31.8048 20.6409 34.1456 24.2656C36.4861 27.8903 35.4448 32.726 31.8202 35.0667C30.832 35.7046 30.6486 36.8687 30.9778 37.6889C32.5858 41.6928 30.6433 46.242 26.6394 47.8499C25.6853 48.2334 24.6997 48.4149 23.7306 48.4149Z" fill="#B43778"/>
<path d="M56.4992 48.4151C55.5298 48.4151 54.5445 48.2335 53.5901 47.8501C49.5862 46.2421 47.6439 41.6929 49.2518 37.689C49.5812 36.8689 49.3978 35.7049 48.4095 35.067C44.7848 32.7265 43.7437 27.8906 46.084 24.2659C48.4245 20.6412 53.2603 19.5998 56.8851 21.9404C64.0306 26.5542 66.9182 35.6264 63.751 43.5121C62.5267 46.5615 59.5956 48.4151 56.4992 48.4151Z" fill="#B43778"/>
<path d="M37.9772 45.2509H42.5084V61.5324H37.9772V45.2509Z" fill="#B43778"/>
<path d="M40.1605 50.6923L25.6216 36.1535L28.8256 32.9495L40.1605 44.2843L51.4953 32.9495L54.6992 36.1535L40.1605 50.6923Z" fill="#B43778"/>
</svg>
