<svg width="86" height="86" viewBox="0 0 86 86" fill="none" xmlns="http://www.w3.org/2000/svg">
<path d="M84 43C84 65.6437 65.6437 84 43 84C20.3563 84 2 65.6437 2 43C2 20.3563 20.3563 2 43 2C65.6437 2 84 20.3563 84 43Z" stroke="#0F8764" stroke-width="4"/>
<path d="M65.1069 26.2436C59.7712 20.9079 51.1201 20.9079 45.7844 26.2436L43 29.0278L40.2157 26.2436C34.8799 20.9079 26.229 20.9079 20.8931 26.2436C15.5574 31.5793 15.5574 40.2304 20.8931 45.566L43 67.6729L43.6967 66.9762L65.1069 45.566C70.4426 40.2304 70.4426 31.5793 65.1069 26.2436Z" fill="#B43778"/>
</svg>
