<svg width="80" height="80" viewBox="0 0 80 80" fill="none" xmlns="http://www.w3.org/2000/svg">
<path d="M78 40C78 60.9868 60.9868 78 40 78C19.0132 78 2 60.9868 2 40C2 19.0132 19.0132 2 40 2C60.9868 2 78 19.0132 78 40Z" stroke="#0F8764" stroke-width="4"/>
<path d="M42.429 52.3967H37.5806L25.3261 27.2333H54.6836L42.429 52.3967Z" fill="#B43778"/>
<path d="M37.5805 52.3969H42.4292V59.3134H37.5805V52.3969Z" fill="#B43778"/>
<path d="M65.9524 42.0209L63.7486 39.9724C66.5121 36.9995 66.3417 32.3324 63.3688 29.569C60.3958 26.8059 55.7288 26.976 52.9653 29.9488L50.7616 27.9004C54.6545 23.7121 61.2291 23.4721 65.4172 27.3653C69.6053 31.2584 69.8453 37.8327 65.9524 42.0209Z" fill="#B43778"/>
<path d="M64.7597 45.5682C67.3087 45.5682 69.375 43.5018 69.375 40.9528C69.375 38.4039 67.3087 36.3375 64.7597 36.3375C62.2107 36.3375 60.1444 38.4039 60.1444 40.9528C60.1444 43.5018 62.2107 45.5682 64.7597 45.5682Z" fill="#B43778"/>
<path d="M13.9447 42.0208C10.0515 37.8327 10.2917 31.258 14.4798 27.3651C18.6678 23.4724 25.2423 23.7119 29.1354 27.9002L26.9317 29.9487C24.1681 26.9757 19.5011 26.8052 16.5283 29.5688C13.5553 32.3323 13.385 36.9993 16.1484 39.9723L13.9447 42.0208Z" fill="#B43778"/>
<path d="M15.1373 45.5679C17.6863 45.5679 19.7527 43.5016 19.7527 40.9526C19.7527 38.4036 17.6863 36.3373 15.1373 36.3373C12.5884 36.3373 10.522 38.4036 10.522 40.9526C10.522 43.5016 12.5884 45.5679 15.1373 45.5679Z" fill="#B43778"/>
</svg>
