<svg width="158" height="32" viewBox="0 0 158 32" fill="none" xmlns="http://www.w3.org/2000/svg">
<path d="M0.00986674 16.2813C0.00986674 14.8694 0.00986674 13.4575 0.00986674 12.0357C0.00986674 11.0484 0.58253 10.4757 1.56001 10.4659C4.27522 10.4659 6.99043 10.456 9.69577 10.4757C10.071 10.4757 10.1894 10.3967 10.1796 10.0018C10.1598 7.18785 10.1697 4.37391 10.1697 1.56983C10.1697 0.592358 10.7424 0.00982169 11.7198 0.00982169C14.3955 0.00982169 17.0811 0.0394422 19.7569 -5.18025e-05C21.0404 -0.0197988 21.465 0.631852 21.4946 1.67844C21.5538 3.85061 21.544 6.02278 21.4946 8.19495C21.465 9.74509 20.7442 10.92 19.3619 11.7C18.187 12.3616 17.1404 13.2206 16.1333 14.119C14.9978 15.1261 13.9809 16.2418 13.0429 17.4365C12.3814 18.2758 11.7593 19.1644 11.2755 20.1123C10.5745 21.4847 9.53779 22.1659 7.97778 22.1363C5.87472 22.0968 3.77167 22.0968 1.66861 22.1363C0.61215 22.1561 -0.0395007 21.4649 -0.00988025 20.4776C0.0394872 19.0755 0.00986674 17.6834 0.00986674 16.2813Z" fill="#B43778"/>
<path d="M20.5468 17.9401C25.6908 17.2489 30.3314 15.6198 33.3231 10.8805C33.481 12.0752 33.2441 13.181 32.8491 14.2474C32.237 15.9061 31.2792 17.3674 30.0549 18.6213C28.9985 19.7074 27.6952 20.4578 26.2339 20.9317C24.7726 21.4057 23.262 21.6723 21.7316 21.8302C20.1321 21.9981 18.5326 22.0573 16.9429 22.2252C15.768 22.3436 14.6029 22.5016 13.5366 23.094C12.3912 23.7358 11.7396 24.6442 11.7396 25.987C11.7396 27.389 11.7495 28.7812 11.7297 30.1832C11.7198 30.5288 11.8087 30.6176 12.1543 30.6176C14.672 30.5979 17.1898 30.6078 19.6976 30.6176C20.0432 30.6176 20.1222 30.5781 20.1518 30.1635C20.2604 28.3467 20.1518 26.5201 20.2407 24.7133C20.2802 23.9333 20.8726 23.4594 21.6328 23.2224C21.7612 23.3113 21.6921 23.4594 21.6921 23.5778C21.6921 25.8784 21.6921 28.1789 21.702 30.4893C21.702 30.7756 21.6328 31.0323 21.5538 31.289C21.4354 31.7037 21.1984 31.9407 20.6751 31.9209C19.3817 31.8716 18.0784 31.9308 16.7751 31.8913C15.2842 31.8518 13.8032 32.0394 12.3123 31.9999C11.7593 31.9901 11.236 31.9012 10.7522 31.605C10.377 31.3779 10.1993 31.0422 10.15 30.6176C9.99198 29.3341 10.0216 28.0308 10.0611 26.7472C10.1006 25.4637 10.3573 24.2295 10.9102 23.0447C11.8679 20.9811 13.1318 19.1348 14.6029 17.4168C16.1037 15.679 17.7526 14.0795 19.6581 12.796C21.0108 11.8876 22.5412 11.3347 24.1407 10.9793C25.4736 10.6732 26.8164 10.4954 28.179 10.3671C29.6402 10.2387 31.0917 10.3473 32.5431 10.2881C32.7208 10.2782 32.9084 10.3276 32.9874 10.4263C33.1058 10.5843 32.8788 10.6633 32.7998 10.762C31.6939 12.1443 30.5387 13.4871 29.1071 14.5337C27.8926 15.4223 26.5498 16.074 25.1379 16.5973C23.726 17.1107 22.2944 17.5155 20.7936 17.6932C20.6751 17.7031 20.5665 17.7821 20.448 17.8315C20.5073 17.8611 20.527 17.9006 20.5468 17.9401Z" fill="#0F8764"/>
<path d="M113.288 13.9314C113.288 16.9034 113.279 19.8851 113.298 22.8571C113.298 23.2224 113.219 23.331 112.844 23.3112C112.094 23.2816 111.333 23.2816 110.573 23.3112C110.198 23.331 110.119 23.2224 110.119 22.8571C110.129 17.6636 110.129 12.4702 110.129 7.26682C110.129 6.62504 110.129 6.62504 109.487 6.62504C108.233 6.62504 106.989 6.64479 105.735 6.61517C105.36 6.60529 105.281 6.70403 105.281 7.06935C105.291 12.2826 105.281 17.4958 105.301 22.709C105.301 23.1829 105.172 23.3409 104.698 23.3112C103.978 23.2718 103.247 23.2816 102.526 23.3112C102.122 23.331 102.023 23.1829 102.023 22.7978C102.033 18.8188 102.033 14.8398 102.033 10.8608C102.033 8.88607 102.043 6.91137 102.023 4.93667C102.023 4.61085 102.112 4.53186 102.428 4.53186C105.913 4.54173 109.398 4.54173 112.884 4.53186C113.209 4.53186 113.288 4.62072 113.288 4.93667C113.279 7.93822 113.288 10.9398 113.288 13.9314Z" fill="#0F8764"/>
<path d="M142.692 13.9314C142.692 16.9132 142.682 19.8851 142.702 22.8669C142.702 23.2421 142.603 23.331 142.238 23.3211C141.487 23.2915 140.727 23.2816 139.967 23.3211C139.582 23.3408 139.522 23.2026 139.522 22.857C139.532 17.6636 139.522 12.4603 139.542 7.26679C139.542 6.78299 139.443 6.5954 138.92 6.62502C138.051 6.66451 137.182 6.64476 136.304 6.63489C135.988 6.62502 135.879 6.73362 135.869 7.05945C135.82 8.60959 135.77 10.1597 135.672 11.7C135.583 12.9638 135.553 14.2375 135.464 15.5013C135.366 16.9527 135.425 18.4238 135.089 19.8456C134.823 20.9613 134.487 22.0375 133.569 22.8176C133.095 23.2224 132.542 23.4791 131.93 23.5087C131.298 23.5383 130.656 23.5482 130.034 23.4198C129.738 23.3606 129.511 23.2322 129.57 22.8669C129.57 22.8472 129.57 22.8373 129.57 22.8176C129.57 22.5213 129.52 22.2153 129.59 21.9289C129.678 21.5439 130.063 21.7512 130.3 21.6722C131.11 21.4056 131.446 20.7639 131.722 20.0826C132.018 19.352 132.107 18.5719 132.147 17.7821C132.216 16.3702 132.285 14.9484 132.354 13.5365C132.413 12.4997 132.463 11.463 132.522 10.4263C132.611 8.87617 132.729 7.33591 132.729 5.78577C132.729 5.65741 132.798 5.53893 132.818 5.41058C132.858 5.14399 132.69 4.74905 132.897 4.6207C133.134 4.48247 133.499 4.57133 133.806 4.57133C136.62 4.57133 139.433 4.5812 142.238 4.56146C142.613 4.56146 142.692 4.65032 142.692 5.01564C142.682 7.97769 142.692 10.9496 142.692 13.9314Z" fill="#0F8764"/>
<path d="M66.103 13.497C66.5572 13.813 67.0805 13.9611 67.4656 14.3363C68.2949 15.1459 68.6307 16.1826 68.8874 17.2687C69.1342 18.3646 69.3415 19.4804 69.6772 20.5566C69.8846 21.2477 70.5066 21.7216 71.2175 21.7216C71.5236 21.7216 71.5532 21.8401 71.5532 22.0968C71.5532 22.3832 71.4742 22.6695 71.6124 22.9657C71.6717 23.0842 71.5828 23.2718 71.3854 23.3211C70.0031 23.6371 68.6109 23.7852 67.4458 22.788C66.8238 22.2548 66.498 21.4748 66.3104 20.675C65.9747 19.2335 65.6884 17.7821 65.3033 16.3505C64.9775 15.1163 64.4147 14.6522 63.299 14.5337C62.9435 14.4942 62.8349 14.593 62.8349 14.978C62.8547 17.5945 62.8349 20.211 62.8547 22.8275C62.8547 23.2323 62.7658 23.3606 62.3511 23.3409C61.581 23.3014 60.801 23.3211 60.0308 23.3409C59.7544 23.3508 59.6754 23.2619 59.6754 22.9854C59.6853 16.9626 59.6853 10.9398 59.6754 4.92683C59.6754 4.6405 59.7643 4.57138 60.0308 4.58126C60.8405 4.60101 61.6402 4.61088 62.4498 4.58126C62.7954 4.57138 62.8448 4.68987 62.8448 4.99594C62.8349 7.34583 62.8547 9.69573 62.825 12.0555C62.825 12.4504 62.9534 12.5097 63.299 12.4998C64.0592 12.4603 64.5726 12.0061 64.9083 10.9595C65.3527 9.58712 65.7377 8.19495 66.2018 6.83241C66.4881 6.01291 66.8633 5.22304 67.663 4.75898C68.4332 4.31467 69.2626 4.23569 70.1314 4.35417C70.1808 4.36404 70.2203 4.39366 70.2696 4.40354C71.6124 4.59113 71.2767 4.41341 71.3261 5.76608C71.336 5.95367 71.2669 6.10178 71.0497 6.08203C69.9636 6.00304 69.46 6.82254 69.1441 7.93824C68.8084 9.14281 68.4825 10.3572 67.9987 11.5223C67.6532 12.3418 67.12 13.0132 66.2808 13.3884C66.2413 13.3687 66.1919 13.4279 66.103 13.497Z" fill="#0F8764"/>
<path d="M45.0626 29.4328C45.2502 28.9194 45.4576 28.4554 45.5859 27.9716C45.7044 27.547 46.0006 27.6655 46.2771 27.6556C46.6029 27.6359 46.4548 27.8926 46.4844 28.0407C46.6325 28.7911 46.593 29.5513 46.6819 30.3116C46.7214 30.5979 46.5733 30.6275 46.3462 30.6275C46.1389 30.6176 45.9809 30.6473 45.9809 30.3313C45.9809 29.8475 45.9118 29.3736 45.8624 28.7614C45.7143 29.1959 45.6156 29.5217 45.4872 29.8376C45.4082 30.0154 45.3687 30.2227 45.0725 30.2326C44.7566 30.2425 44.6874 30.0252 44.6183 29.8179C44.5097 29.5019 44.4505 29.1564 44.174 28.7417C44.3024 29.3736 44.095 29.8475 44.1246 30.3412C44.1444 30.6769 43.9371 30.6078 43.7495 30.6176C43.5421 30.6275 43.4039 30.6176 43.4236 30.3412C43.5026 29.5019 43.5619 28.6627 43.6211 27.8234C43.631 27.6556 43.7297 27.6359 43.8482 27.6556C44.0654 27.6951 44.3419 27.5075 44.4702 27.8531C44.6479 28.3566 44.8454 28.8602 45.0626 29.4328Z" fill="#1C1C21"/>
<path d="M126.904 27.6655C126.884 27.6655 126.914 27.6556 126.953 27.6556C127.595 27.626 127.595 27.626 127.595 28.2875C127.595 28.7812 127.605 29.2748 127.585 29.7685C127.575 30.0351 127.635 30.1437 127.931 30.1338C128.197 30.1239 128.306 30.0845 128.296 29.7882C128.276 29.2353 128.296 28.6725 128.286 28.1196C128.276 27.8333 128.267 27.6556 128.671 27.6457C129.116 27.6358 129.086 27.8531 129.086 28.1493C129.076 28.6034 129.066 29.0675 129.086 29.5315C129.096 29.7586 129.056 29.966 129.303 30.2128C129.55 30.4596 129.382 31.0224 129.353 31.447C129.343 31.5655 129.195 31.5062 129.106 31.526C128.938 31.5655 128.839 31.447 128.839 31.3285C128.82 30.588 128.326 30.6176 127.793 30.6374C126.914 30.667 126.914 30.6472 126.914 29.7488C126.904 29.0379 126.904 28.3566 126.904 27.6655Z" fill="#1C1C21"/>
<path d="M72.432 29.0873C72.432 28.722 72.4517 28.3665 72.4221 28.0012C72.4023 27.7346 72.4813 27.6359 72.7677 27.6359C73.0441 27.6359 73.133 27.705 73.1231 27.9913C73.1034 28.6035 73.133 29.2058 73.1132 29.8179C73.1034 30.1141 73.2416 30.124 73.4687 30.124C73.6859 30.124 73.834 30.124 73.8241 29.8179C73.8044 29.1959 73.8439 28.564 73.8044 27.9419C73.7846 27.5766 74.0117 27.6457 74.2092 27.6457C74.4165 27.6457 74.6338 27.5865 74.614 27.9518C74.5844 28.5047 74.5943 29.0675 74.614 29.6303C74.6239 29.808 74.4462 30.124 74.851 30.1437C74.9102 30.1437 74.9398 31.4076 74.8806 31.447C74.6831 31.5557 74.4462 31.5458 74.4264 31.2989C74.3474 30.4301 73.7254 30.6177 73.1922 30.6078C72.4418 30.6078 72.4418 30.6078 72.4418 29.8772C72.432 29.6106 72.432 29.344 72.432 29.0873Z" fill="#1C1C21"/>
<path d="M66.103 29.2749C66.2906 28.8306 66.498 28.3862 66.6658 27.9321C66.8238 27.4976 67.1693 27.6457 67.4458 27.6556C67.7617 27.6754 67.584 27.9716 67.5939 28.1295C67.6136 28.8306 67.5939 29.5414 67.6136 30.2425C67.6235 30.509 67.5643 30.6177 67.2681 30.6078C67.0015 30.5979 66.8929 30.5584 66.9028 30.2622C66.9324 29.808 66.9126 29.344 66.9126 28.7318C66.6164 29.3637 66.3202 29.8376 66.1524 30.3609C66.0142 30.7954 65.7278 30.5387 65.5205 30.588C65.2342 30.6473 65.3329 30.3906 65.3329 30.2523C65.323 29.4822 65.3428 28.7121 65.323 27.9419C65.3132 27.6556 65.4415 27.626 65.6686 27.6359C65.8759 27.6457 66.0438 27.626 66.024 27.9321C65.9944 28.3764 66.0142 28.8207 66.0142 29.2551C66.0537 29.2749 66.0734 29.2749 66.103 29.2749Z" fill="#1C1C21"/>
<path d="M115.391 28.8799C115.184 29.3538 114.947 29.8179 114.779 30.3116C114.641 30.7164 114.335 30.6078 114.068 30.6078C113.713 30.5979 113.891 30.3116 113.891 30.1635C113.871 29.4427 113.891 28.7219 113.871 27.9913C113.861 27.705 113.96 27.6457 114.236 27.6457C114.533 27.6359 114.592 27.7445 114.582 28.011C114.562 28.4356 114.572 28.8602 114.572 29.3835C114.957 28.9194 115.085 28.4159 115.234 27.9617C115.401 27.4581 115.737 27.6951 115.984 27.6753C116.28 27.6655 116.132 27.9518 116.132 28.09C116.152 28.8009 116.132 29.5019 116.142 30.2128C116.142 30.4498 116.172 30.6374 115.806 30.6374C115.48 30.6374 115.431 30.5189 115.441 30.2326C115.461 29.7883 115.451 29.344 115.451 28.8997C115.431 28.8898 115.411 28.8799 115.391 28.8799Z" fill="#1C1C21"/>
<path d="M107.631 29.2749C107.809 28.8108 107.996 28.3468 108.174 27.8827C108.312 27.5075 108.628 27.6655 108.875 27.6556C109.161 27.6457 109.033 27.8926 109.033 28.0308C109.043 28.7812 109.023 29.5415 109.043 30.2918C109.053 30.6177 108.895 30.6078 108.658 30.6177C108.381 30.6374 108.332 30.5288 108.342 30.282C108.362 29.8574 108.342 29.4328 108.283 28.9688C108.105 29.3835 107.937 29.808 107.749 30.2227C107.67 30.4005 107.621 30.6177 107.335 30.6177C107.009 30.6177 106.841 30.5979 106.861 30.1832C106.9 29.4427 106.891 28.7022 106.861 27.9716C106.851 27.6457 107.009 27.6556 107.246 27.6457C107.513 27.6359 107.582 27.7247 107.572 27.9814C107.552 28.406 107.562 28.8306 107.562 29.265C107.592 29.265 107.611 29.265 107.631 29.2749Z" fill="#1C1C21"/>
<path d="M80.3011 29.2748C80.4393 28.949 80.6171 28.6232 80.7059 28.2776C80.854 27.7049 81.1798 27.4976 81.713 27.6654C81.713 28.5146 81.7031 29.3735 81.7229 30.2227C81.7328 30.5287 81.6538 30.6077 81.3477 30.6077C81.0219 30.6077 81.012 30.4596 81.0219 30.2227C81.0317 29.808 81.0219 29.4032 80.9626 28.9589C80.7849 29.3735 80.6171 29.7981 80.4295 30.2029C80.3505 30.3806 80.311 30.5979 80.0148 30.5979C79.689 30.5979 79.5113 30.5781 79.5409 30.1634C79.5804 29.4229 79.5705 28.6824 79.5409 27.9419C79.531 27.6161 79.689 27.6259 79.9259 27.6161C80.1925 27.6062 80.2616 27.7049 80.2518 27.9518C80.232 28.3763 80.2419 28.8108 80.2419 29.2353C80.2518 29.2649 80.2814 29.2748 80.3011 29.2748Z" fill="#1C1C21"/>
<path d="M142.988 29.1268C142.988 29.4724 142.968 29.8179 142.988 30.1635C143.008 30.4696 142.978 30.6275 142.593 30.6275C142.208 30.6275 142.169 30.4696 142.198 30.1635C142.218 30.0154 142.188 29.8673 142.208 29.7192C142.228 29.4625 142.208 29.3144 141.862 29.3045C141.517 29.3045 141.497 29.4625 141.517 29.7192C141.527 29.8475 141.497 29.9858 141.527 30.1141C141.596 30.5288 141.438 30.6572 141.023 30.6177C140.786 30.5979 140.717 30.5387 140.727 30.3017C140.737 29.5118 140.757 28.722 140.727 27.942C140.717 27.5766 140.924 27.6458 141.132 27.6458C141.339 27.6458 141.586 27.5766 141.527 27.942C141.507 28.0999 141.537 28.2678 141.517 28.4356C141.497 28.6923 141.517 28.8503 141.862 28.8503C142.208 28.8503 142.228 28.7022 142.208 28.4356C142.198 28.3073 142.228 28.1691 142.208 28.0407C142.149 27.6161 142.415 27.6556 142.702 27.6359C143.116 27.6161 142.978 27.8926 142.988 28.0901C142.998 28.4356 142.988 28.7812 142.988 29.1268Z" fill="#1C1C21"/>
<path d="M88.0222 29.3341C88.0123 29.3341 87.963 29.3341 87.9136 29.3243C87.4693 29.2453 87.2323 29.3835 87.331 29.8772C87.3508 30.0055 87.3212 30.1438 87.3409 30.2721C87.4001 30.6374 87.1731 30.5979 86.9361 30.6177C86.6497 30.6374 86.5313 30.5782 86.5411 30.2524C86.5708 29.502 86.5708 28.7417 86.5411 27.9913C86.5214 27.626 86.7189 27.6655 86.9558 27.6458C87.2422 27.626 87.4001 27.6853 87.3409 28.0111C87.331 28.0604 87.3409 28.1098 87.3409 28.1592C87.3409 28.8799 87.3409 28.8799 88.0913 28.801C87.9926 28.5837 88.0617 28.3567 88.0321 28.1394C87.963 27.6754 88.2197 27.626 88.585 27.6458C88.7923 27.6556 88.822 27.7346 88.822 27.9123C88.8121 28.7318 88.8121 29.5513 88.822 30.3708C88.8318 30.7263 88.5751 30.5979 88.4171 30.6078C88.2493 30.6177 88.0024 30.7065 88.0222 30.361C88.0419 30.0154 88.0222 29.6698 88.0222 29.3341Z" fill="#1C1C21"/>
<path d="M100.068 27.6458C100.265 27.7742 100.68 27.3792 100.749 27.9025C100.789 28.1888 100.759 28.485 100.759 28.8207C101.026 28.6726 101.095 28.4653 101.164 28.2283C101.332 27.6952 101.707 27.4582 102.112 27.5471C102.22 27.5668 102.289 27.626 102.319 27.7248C102.349 27.8235 102.27 27.8828 102.201 27.9223C101.746 28.1296 101.914 28.7516 101.48 28.9688C101.48 28.9688 101.48 28.9985 101.49 29.0083C101.983 29.3045 101.816 29.9661 102.21 30.3215C102.408 30.4992 102.388 30.5585 102.151 30.6671C101.806 30.8251 101.371 30.5585 101.253 30.1043C101.203 29.9167 101.174 29.7291 101.105 29.5514C101.075 29.4625 101.065 29.3243 100.887 29.3342C100.69 29.3539 100.759 29.4921 100.759 29.5909C100.749 29.7587 100.769 29.9167 100.749 30.0846C100.729 30.3215 100.897 30.6375 100.394 30.6276C99.8705 30.6177 100.078 30.2722 100.068 30.0549C100.048 29.2651 100.068 28.4752 100.068 27.6458Z" fill="#1C1C21"/>
<path d="M93.4527 29.028C93.4922 28.8206 93.5021 28.5343 93.5909 28.2578C93.7884 27.6457 94.8152 27.31 95.3484 27.6556C95.4768 27.7345 95.4373 27.8432 95.3681 27.9518C95.3089 28.0505 95.2003 28.0406 95.1016 28.0505C94.2327 28.1394 94.2327 28.1394 94.2327 29.028C94.2327 29.2254 94.2129 29.4229 94.2426 29.6204C94.2919 29.9857 94.44 30.272 94.8942 30.2227C95.0127 30.2128 95.1213 30.2227 95.2398 30.2227C95.3681 30.2128 95.4866 30.2819 95.5064 30.3905C95.5261 30.5485 95.4076 30.588 95.2595 30.6275C94.0254 30.9138 93.4922 30.3313 93.4527 29.028Z" fill="#1C1C21"/>
<path d="M148.912 29.3242C148.912 29.6204 148.902 29.9166 148.912 30.2128C148.922 30.4695 148.912 30.6275 148.566 30.6275C148.221 30.6275 148.211 30.4794 148.221 30.2128C148.231 29.6402 148.211 29.0675 148.231 28.4948C148.241 28.1493 148.132 28.011 147.777 28.0407C147.648 28.0505 147.431 28.1394 147.431 27.8531C147.431 27.5569 147.638 27.6655 147.777 27.6556C148.329 27.6457 148.892 27.6753 149.445 27.6457C149.751 27.626 149.593 27.8432 149.623 27.932C149.692 28.1196 149.603 28.0999 149.435 28.0604C149.05 27.9617 148.813 28.0703 148.892 28.5442C148.942 28.791 148.912 29.0675 148.912 29.3242Z" fill="#1C1C21"/>
<path d="M115.016 27.3594C114.819 27.2804 114.602 27.2211 114.404 27.1224C114.256 27.0434 114.207 26.8953 114.325 26.7571C114.404 26.6583 114.473 26.5399 114.661 26.6781C114.868 26.8262 115.164 26.8361 115.372 26.6682C115.54 26.53 115.589 26.6583 115.668 26.7373C115.796 26.8756 115.767 27.0237 115.628 27.1027C115.451 27.2113 115.234 27.2804 115.016 27.3594Z" fill="#1C1C21"/>
<path d="M57.3452 22.9756C57.2366 22.6399 57.1971 22.2943 57.1083 21.9487C56.3283 18.9965 55.5384 16.0542 54.7781 13.1021C54.0672 10.3572 53.3958 7.6124 52.6948 4.86757C52.6455 4.6701 52.5665 4.54175 52.3098 4.54175C51.1546 4.5615 50.0092 4.55162 48.854 4.55162C48.6763 4.55162 48.6072 4.5615 48.5381 4.78859C48.1135 6.23999 47.7581 7.71114 47.3928 9.17242C46.2474 13.7735 45.0231 18.3449 43.8482 22.9361C43.7791 23.2125 43.8186 23.3211 44.1345 23.3113C44.954 23.2915 45.7834 23.2718 46.6029 23.3211C47.0571 23.3508 47.1854 23.1434 47.2842 22.7682C47.6001 21.4748 47.9556 20.1814 48.2419 18.8781C48.311 18.5819 48.3999 18.5621 48.6368 18.5621C49.2786 18.572 49.9204 18.5621 50.5621 18.5621C51.2237 18.5621 51.8753 18.572 52.5368 18.5522C52.8429 18.5424 52.9417 18.651 53.0108 18.9472C53.3267 20.2998 53.6624 21.6426 53.9981 22.9854C54.0475 23.1829 54.1265 23.3113 54.3931 23.3113C55.3014 23.2915 56.1999 23.3014 57.1083 23.3014C57.3354 23.3113 57.444 23.252 57.3452 22.9756ZM52.1123 16.4196C51.0854 16.4196 50.0487 16.2912 49.0219 16.4689C48.7553 16.5183 48.7454 16.3307 48.8145 16.0937C49.0713 15.0965 49.328 14.0894 49.5452 13.0724C49.8513 11.6507 50.1968 10.2289 50.651 8.8071C50.7794 9.27115 50.9176 9.74508 51.0262 10.2091C51.3718 11.7 51.7075 13.1909 52.0432 14.6818C52.1518 15.1459 52.2999 15.6001 52.3986 16.0641C52.4282 16.232 52.4973 16.4196 52.1123 16.4196Z" fill="#0F8764"/>
<path d="M128.563 11.5124C128.563 11.1965 128.513 10.8706 128.464 10.5547C128.276 9.40935 128 8.2739 127.477 7.22731C126.934 6.13135 126.173 5.20324 124.979 4.74906C123.863 4.3245 122.737 4.1764 121.533 4.33438C119.568 4.60096 118.225 5.64755 117.435 7.39516C116.557 9.33036 116.458 11.4334 116.339 13.5167C116.31 14.0696 116.399 14.6226 116.418 15.1755C116.468 16.8737 116.685 18.5325 117.327 20.1122C117.84 21.3662 118.62 22.4127 119.884 23.0052C121 23.5285 122.204 23.6074 123.389 23.4791C124.317 23.3803 125.235 23.0841 125.976 22.472C126.904 21.7117 127.487 20.7046 127.882 19.5692C128.523 17.7327 128.592 15.8173 128.701 13.5266C128.77 13.102 128.553 12.3122 128.563 11.5124ZM125.502 14.0499C125.443 15.9061 125.413 17.7919 124.742 19.5692C124.485 20.2505 124.199 20.9317 123.547 21.3267C122.471 21.9783 121.345 21.6031 120.694 20.4183C120.2 19.5297 119.983 18.5522 119.815 17.5649C119.598 16.3405 119.578 15.1064 119.627 13.7833C119.529 12.2825 119.657 10.7127 120.022 9.18226C120.259 8.17517 120.555 7.1582 121.484 6.47692C122.422 5.78578 123.705 6.23009 124.258 7.16807C124.959 8.37264 125.186 9.69568 125.344 11.0484C125.443 12.0357 125.532 13.0527 125.502 14.0499Z" fill="#0F8764"/>
<path d="M98.9028 11.858C98.7942 10.683 98.6461 9.53772 98.2808 8.41214C97.8661 7.10884 97.2342 5.91415 96.0493 5.14402C95.2891 4.65034 94.44 4.443 93.5316 4.32452C92.1592 4.15667 90.9151 4.39363 89.7501 5.06503C88.506 5.7858 87.8741 6.98049 87.4298 8.30354C86.8374 10.1005 86.6794 11.9666 86.7387 13.5266C86.7485 14.9879 86.7584 16.1233 86.9263 17.2588C87.1336 18.651 87.4594 19.974 88.2098 21.1687C88.7232 21.9882 89.3946 22.6201 90.303 23.015C91.5174 23.5383 92.7615 23.5976 94.045 23.4001C95.6742 23.1631 96.8294 22.2844 97.639 20.8725C98.656 19.0854 98.883 17.1206 98.9818 15.136C99.0114 14.0499 99.0015 12.9539 98.9028 11.858ZM95.8124 14.7213C95.7137 16.4788 95.6149 18.2461 94.9336 19.9148C94.5979 20.7441 93.7192 21.7315 92.7911 21.6426C92.0111 21.5636 91.2311 21.0601 90.8855 20.2307C90.3523 18.9373 90.0858 17.5846 89.9772 16.1826C89.9179 15.4322 89.9377 14.6818 89.908 14.1684C89.8784 12.1147 89.9969 10.3177 90.4906 8.56025C90.6288 8.06657 90.846 7.59264 91.1126 7.16808C91.9519 5.84504 93.6896 5.67719 94.6276 7.25695C95.2792 8.37265 95.4866 9.60684 95.6347 10.8608C95.7828 12.1542 95.8815 13.4378 95.8124 14.7213Z" fill="#0F8764"/>
<path d="M84.0827 7.55317C83.7569 6.57569 83.1842 5.78581 82.3252 5.21315C81.1898 4.44301 79.8766 4.33441 78.5634 4.26529C77.8525 4.2258 77.1317 4.27517 76.4209 4.33441C75.6014 4.40352 74.8016 4.522 74.0018 4.69973C73.6661 4.76884 73.6168 4.8972 73.6168 5.20327C73.6266 8.14558 73.6267 11.0879 73.6267 14.0302C73.6267 16.9922 73.6365 19.9444 73.6168 22.9065C73.6168 23.2224 73.6859 23.3212 74.0216 23.3113C74.8115 23.2817 75.6014 23.2915 76.3912 23.3113C76.7171 23.3212 76.796 23.2323 76.796 22.9065C76.7763 21.3267 76.7862 19.7469 76.7862 18.1672C76.7862 17.6538 76.875 17.5649 77.3786 17.6735C78.4351 17.9006 79.5014 17.9697 80.5579 17.7624C81.9599 17.4958 83.0262 16.7849 83.7075 15.4618C84.3394 14.2375 84.4678 12.9244 84.5566 11.6013C84.6455 10.2486 84.5171 8.87622 84.0827 7.55317ZM80.9725 13.9117C80.4887 15.4618 79.6791 15.6396 78.4054 15.7877C77.892 15.8469 77.2009 15.9851 76.8849 15.7186C76.5591 15.452 76.7961 14.7312 76.7862 14.2178C76.7763 13.1317 76.7862 12.0456 76.7862 10.9595C76.7862 9.50812 76.796 8.06659 76.7763 6.61519C76.7763 6.28936 76.8553 6.2005 77.1811 6.21037C78.05 6.23999 78.9189 6.18075 79.7482 6.55594C80.5579 6.91139 80.9429 7.64203 81.091 8.38254C81.4662 10.219 81.5452 12.095 80.9725 13.9117Z" fill="#0F8764"/>
<path d="M157.295 16.0345C157.097 15.0077 156.811 14.0203 156.06 13.2403C155.073 12.1937 153.78 11.8778 152.417 11.7593C151.568 11.6803 150.739 11.9074 149.899 11.9765C149.653 11.9962 149.653 11.9074 149.653 11.7494C149.741 9.46863 149.662 7.18786 149.692 4.90708C149.692 4.63062 149.623 4.54176 149.347 4.55163C148.527 4.57138 147.698 4.58125 146.878 4.55163C146.513 4.54176 146.424 4.64049 146.424 5.00581C146.444 7.92837 146.434 10.8608 146.434 13.7834C146.434 16.7257 146.444 19.668 146.424 22.6103C146.424 22.9163 146.542 23.0348 146.789 23.1039C147.599 23.3113 148.428 23.4692 149.258 23.489C150.65 23.5186 152.062 23.6174 153.444 23.3113C154.392 23.1039 155.29 22.7682 155.982 22.0672C156.989 21.0404 157.344 19.7371 157.384 18.335C157.413 17.5649 157.443 16.7948 157.295 16.0345ZM154.036 19.3224C153.681 20.8923 152.723 21.3859 151.351 21.5242C150.907 21.5637 150.462 21.5143 150.018 21.534C149.751 21.5439 149.692 21.4551 149.692 21.2082C149.702 18.9077 149.702 16.6072 149.702 14.2968C149.702 14.1684 149.702 14.0302 149.702 13.9315C150.304 13.9315 150.887 13.9413 151.459 13.9315C153.207 13.8821 153.967 15.1558 154.155 16.5874C154.264 17.5057 154.244 18.414 154.036 19.3224Z" fill="#0F8764"/>
<path d="M60.6233 30.1931C60.3666 29.9364 60.4455 29.739 60.406 29.502C60.3764 29.3045 60.3962 29.1071 60.3962 28.9096C60.3962 28.5936 60.3863 28.2876 60.3962 27.9716C60.4159 27.7248 60.3468 27.626 60.0703 27.6359C59.626 27.6557 59.1817 27.6557 58.7374 27.6359C58.4807 27.626 58.382 27.6952 58.4116 27.9617C58.4807 28.5146 58.3227 29.0577 58.3129 29.6106C58.3129 29.8081 58.2339 30.045 58.0463 30.0747C57.7994 30.124 57.8192 30.2524 57.8291 30.4104C57.8291 30.6276 57.8093 30.8448 57.8389 31.0521C57.8587 31.2002 57.6711 31.4668 58.0463 31.4866C58.3425 31.4964 58.3919 31.3187 58.4215 31.1015C58.4511 30.9139 58.4708 30.6276 58.6288 30.6177C59.083 30.5683 59.5569 30.5486 60.0012 30.6177C60.2283 30.6572 60.021 31.0028 60.1395 31.1805C60.1987 31.2693 60.2481 31.3977 60.3271 31.4471C60.4258 31.5063 60.643 31.5458 60.6628 31.4076C60.7121 31.0028 60.8701 30.4301 60.6233 30.1931ZM59.705 28.4653C59.705 28.7812 59.705 29.0873 59.705 29.4033C59.705 30.1635 59.705 30.1635 58.9151 30.0747C59.1225 29.5514 59.1422 29.0083 59.1126 28.4554C59.1027 28.2579 59.0929 28.0506 59.3891 28.0407C59.7149 28.0308 59.7149 28.2382 59.705 28.4653Z" fill="#1C1C21"/>
<path d="M156.238 28.1296C156.051 27.6754 155.577 27.3989 155.192 27.5767C154.935 27.6951 154.727 27.6951 154.481 27.6458C154.204 27.5964 154.115 27.705 154.125 27.9815C154.145 28.5541 154.135 29.1268 154.135 29.6995C154.135 30.2919 154.135 30.8744 154.135 31.4668C154.135 31.5754 154.056 31.7235 154.263 31.7828C154.698 31.9111 154.925 31.7531 154.925 31.3088C154.925 31.141 154.935 30.983 154.925 30.8152C154.915 30.6078 155.004 30.5782 155.192 30.6276C155.685 30.746 156.11 30.5585 156.258 30.0944C156.485 29.4526 156.515 28.7812 156.238 28.1296ZM155.567 30.0055C155.498 30.203 155.271 30.2425 155.063 30.203C154.836 30.1536 154.945 29.966 154.935 29.8476C154.915 29.6007 154.925 29.3539 154.925 29.107C154.925 28.88 154.905 28.643 154.935 28.4159C154.945 28.2875 154.806 28.0703 155.083 28.0308C155.3 28.0012 155.498 28.0605 155.577 28.2579C155.823 28.8405 155.754 29.4329 155.567 30.0055Z" fill="#1C1C21"/>
<path d="M135.079 29.3341C135.237 29.3044 135.415 29.3044 135.573 29.3341C136.086 29.4328 136.136 29.1563 136.086 28.7515C136.027 28.1887 135.652 27.6654 135.227 27.5568C134.753 27.4482 134.25 27.6556 134.023 28.1295C133.875 28.4454 133.806 28.791 133.815 29.1563C133.835 30.4201 134.516 30.8743 135.691 30.6176C135.879 30.5781 135.889 30.509 135.889 30.3609C135.889 30.1733 135.751 30.2128 135.642 30.2128C135.464 30.2029 135.277 30.2227 135.099 30.2128C134.704 30.1931 134.605 29.9363 134.595 29.5908C134.576 29.1465 134.902 29.3637 135.079 29.3341ZM134.595 28.6034C134.615 28.327 134.605 27.9715 134.951 27.9715C135.415 27.9715 135.277 28.4652 135.366 28.7318C135.435 28.9589 135.138 28.9292 134.902 28.9391C134.684 28.9885 134.566 28.8898 134.595 28.6034Z" fill="#1C1C21"/>
<path d="M52.5369 29.3341C52.6257 29.3045 52.7343 29.3243 52.8331 29.3243C53.5143 29.3243 53.5143 29.3243 53.4946 28.6529C53.4748 28.0703 53.1095 27.6161 52.5566 27.5569C52.0629 27.4977 51.5396 27.7544 51.4014 28.3468C51.3422 28.6035 51.3521 28.8602 51.3323 28.9886C51.204 30.44 52.0432 30.904 53.1391 30.6177C53.2873 30.5782 53.386 30.5288 53.386 30.3708C53.386 30.1437 53.2083 30.2326 53.0997 30.2227C52.9022 30.2129 52.6948 30.2524 52.5072 30.2129C52.1715 30.1339 51.984 29.8969 52.0037 29.5513C52.0432 29.1169 52.3591 29.3934 52.5369 29.3341ZM52.0037 28.5936C52.0333 28.3073 52.1321 27.9716 52.4184 27.9716C52.7442 27.9815 52.764 28.3468 52.8034 28.6232C52.8528 29.0379 52.5566 28.8997 52.2999 28.9293C52.0728 28.9886 51.9741 28.8799 52.0037 28.5936Z" fill="#1C1C21"/>
</svg>
