<svg width="10" height="14" viewBox="0 0 10 14" fill="none" xmlns="http://www.w3.org/2000/svg">
<path fill-rule="evenodd" clip-rule="evenodd" d="M5 0.333374C2.42 0.333374 0.333332 2.42004 0.333332 5.00004C0.333332 8.50004 5 13.6667 5 13.6667C5 13.6667 9.66667 8.50004 9.66667 5.00004C9.66667 2.42004 7.58 0.333374 5 0.333374ZM1.66667 5.00004C1.66667 3.16004 3.16 1.66671 5 1.66671C6.84 1.66671 8.33333 3.16004 8.33333 5.00004C8.33333 6.92004 6.41333 9.79337 5 11.5867C3.61333 9.80671 1.66667 6.90004 1.66667 5.00004ZM3.33333 5.00004C3.33333 4.07957 4.07952 3.33337 5 3.33337C5.59544 3.33337 6.14565 3.65104 6.44337 4.16671C6.7411 4.68238 6.7411 5.31771 6.44337 5.83337C6.14565 6.34904 5.59544 6.66671 5 6.66671C4.07952 6.66671 3.33333 5.92052 3.33333 5.00004Z" fill="#B43778"/>
</svg>
