<svg width="16" height="10" viewBox="0 0 16 10" fill="none" xmlns="http://www.w3.org/2000/svg">
<path fill-rule="evenodd" clip-rule="evenodd" d="M0.666687 5C1.82002 2.07333 4.66669 0 8.00002 0C11.3334 0 14.18 2.07333 15.3334 5C14.18 7.92667 11.3334 10 8.00002 10C4.66669 10 1.82002 7.92667 0.666687 5ZM13.88 5C12.78 2.75333 10.5267 1.33333 8.00002 1.33333C5.47336 1.33333 3.22002 2.75333 2.12002 5C3.22002 7.24667 5.46669 8.66667 8.00002 8.66667C10.5334 8.66667 12.78 7.24667 13.88 5ZM8.00002 3.33333C8.92002 3.33333 9.66669 4.08 9.66669 5C9.66669 5.92 8.92002 6.66667 8.00002 6.66667C7.08002 6.66667 6.33335 5.92 6.33335 5C6.33335 4.08 7.08002 3.33333 8.00002 3.33333ZM5.00002 5C5.00002 3.34667 6.34669 2 8.00002 2C9.65335 2 11 3.34667 11 5C11 6.65333 9.65335 8 8.00002 8C6.34669 8 5.00002 6.65333 5.00002 5Z" fill="#333333"/>
</svg>
