<svg width="32" height="32" viewBox="0 0 32 32" fill="none" xmlns="http://www.w3.org/2000/svg">
<path fill-rule="evenodd" clip-rule="evenodd" d="M16 9.26318C14.139 9.26318 12.6316 10.7706 12.6316 12.6316C12.6316 14.4927 14.139 16 16 16C17.8611 16 19.3684 14.4927 19.3684 12.6316C19.3684 10.7706 17.8611 9.26318 16 9.26318ZM17.7684 12.6316C17.7684 11.6548 16.9769 10.8632 16 10.8632C15.0232 10.8632 14.2316 11.6548 14.2316 12.6316C14.2316 13.6084 15.0232 14.4 16 14.4C16.9769 14.4 17.7684 13.6084 17.7684 12.6316ZM21.1369 20.2106C21.1369 19.6716 18.5011 18.4421 16 18.4421C13.499 18.4421 10.8632 19.6716 10.8632 20.2106V21.1369H21.1369V20.2106ZM9.26318 20.2106C9.26318 17.9706 13.7516 16.8421 16 16.8421C18.2484 16.8421 22.7369 17.9706 22.7369 20.2106V22.7369H9.26318V20.2106Z" fill="#B43778"/>
<circle cx="16" cy="16" r="15" stroke="#B43778" stroke-width="2"/>
</svg>
